HIERARCHY
ROOT Hips
{
	OFFSET 0.000000 0.000000 0.000000 
	CHANNELS 6 Xposition Yposition Zposition Zrotation Yrotation Xrotation
	JOINT LeftUpLeg
	{
		OFFSET 1.363060 -1.794630 0.839290 
		CHANNELS 3 Zrotation Yrotation Xrotation
		JOINT LeftLeg
		{
			OFFSET 2.448110 -6.726130 0.000000 
			CHANNELS 3 Zrotation Yrotation Xrotation
			JOINT LeftFoot
			{
				OFFSET 2.562200 -7.039590 0.000000 
				CHANNELS 3 Zrotation Yrotation Xrotation
				JOINT LeftToeBase
				{
					OFFSET 0.157640 -0.433110 2.322550 
					CHANNELS 3 Zrotation Yrotation Xrotation
					End Site
					{
						OFFSET 0.000000 0.000000 0.000000 
					}
				}
			}
		}
	}
	JOINT RightUpLeg
	{
		OFFSET -1.305520 -1.794630 0.839290 
		CHANNELS 3 Zrotation Yrotation Xrotation
		JOINT RightLeg
		{
			OFFSET -2.542530 -6.985550 0.000000 
			CHANNELS 3 Zrotation Yrotation Xrotation
			JOINT RightFoot
			{
				OFFSET -2.568260 -7.056230 0.000000 
				CHANNELS 3 Zrotation Yrotation Xrotation
				JOINT RightToeBase
				{
					OFFSET -0.164730 -0.452590 2.363150 
					CHANNELS 3 Zrotation Yrotation Xrotation
					End Site
					{
						OFFSET 0.000000 0.000000 0.000000 
					}
				}
			}
		}
	}
	JOINT Spine
	{
		OFFSET 0.028270 2.035590 -0.193380 
		CHANNELS 3 Zrotation Yrotation Xrotation
		JOINT Spine1
		{
			OFFSET 0.056720 2.048850 -0.042750 
			CHANNELS 3 Zrotation Yrotation Xrotation
			JOINT Neck1
			{
				OFFSET -0.054170 1.746240 0.172020 
				CHANNELS 3 Zrotation Yrotation Xrotation
				JOINT Head
				{
					OFFSET 0.104070 1.761360 -0.123970 
					CHANNELS 3 Zrotation Yrotation Xrotation
					End Site
					{
						OFFSET 0.000000 0.000000 0.000000 
					}
				}
			}
			JOINT LeftArm
			{
				OFFSET 3.362410 1.200890 -0.311210 
				CHANNELS 3 Zrotation Yrotation Xrotation
				JOINT LeftForeArm
				{
					OFFSET 4.983000 -0.000000 -0.000000 
					CHANNELS 3 Zrotation Yrotation Xrotation
					JOINT LeftHand
					{
						OFFSET 3.483560 -0.000000 -0.000000 
						CHANNELS 3 Zrotation Yrotation Xrotation
						JOINT LeftHandIndex1
						{
							OFFSET 0.715260 -0.000000 -0.000000 
							CHANNELS 3 Zrotation Yrotation Xrotation
							End Site
							{
								OFFSET 0.000000 0.000000 0.000000 
							}
						}
					}
				}
			}
			JOINT RightArm
			{
				OFFSET -3.136600 1.374050 -0.404650 
				CHANNELS 3 Zrotation Yrotation Xrotation
				JOINT RightForeArm
				{
					OFFSET -5.241900 -0.000000 -0.000000 
					CHANNELS 3 Zrotation Yrotation Xrotation
					JOINT RightHand
					{
						OFFSET -3.444170 -0.000000 -0.000000 
						CHANNELS 3 Zrotation Yrotation Xrotation
						JOINT RightHandIndex1
						{
							OFFSET -0.622530 -0.000000 -0.000000 
							CHANNELS 3 Zrotation Yrotation Xrotation
							End Site
							{
								OFFSET 0.000000 0.000000 0.000000 
							}
						}
					}
				}
			}
		}
	}
}
MOTION
Frames: 7
Frame Time: 0.041667
9.853076 17.826544 26.488570 -179.403667 1.256023 -166.069083 -24.629298 -11.917524 -6.791322 -0.056077 3.016740 9.815982 0.734762 -0.511337 -15.564481 9.102500 -16.873200 -56.444000 31.078998 7.092359 -6.231238 -0.078699 -2.353007 10.581557 -0.484168 3.524771 -12.295690 -0.672800 5.245000 -14.608700 0.509486 2.802399 -5.370859 2.179693 1.424310 3.048432 8.564247 -4.852845 25.719955 2.781500 -2.701900 10.447500 -88.531546 -1.538273 22.731117 7.005595 -15.981960 -1.741521 0.398885 1.043536 28.881602 -7.125000 0.000000 0.000000 87.437074 -6.922878 -6.495732 -7.499366 25.707332 -4.247429 -0.370474 -2.608341 16.382761 7.125000 0.000000 0.000000 
9.845577 17.825687 26.483856 -179.471601 1.220978 -166.051797 -24.739845 -12.013262 -6.859210 -0.045859 3.070917 9.960590 0.745649 -0.576099 -15.655010 9.110400 -16.878300 -56.471300 30.955181 7.237697 -6.188762 -0.072891 -2.321779 10.492943 -0.501173 3.609802 -12.467677 -0.632600 5.089200 -14.163100 0.509832 2.734171 -5.365480 2.160393 1.384395 3.124486 8.559368 -4.832983 25.691068 2.791100 -2.703200 10.405900 -88.619250 -1.495530 23.713578 7.442331 -16.562790 -1.854626 0.429082 1.044882 27.938429 -7.125000 0.000000 0.000000 87.410413 -6.733643 -6.474060 -7.478852 25.673949 -4.226200 -0.329239 -2.620001 16.682107 7.125000 0.000000 0.000000 
9.839364 17.825687 26.480214 -179.519035 1.169327 -166.016686 -24.813654 -12.116803 -6.978092 -0.030367 3.146835 10.159225 0.755828 -0.677904 -15.729303 9.241900 -16.960900 -56.923000 30.872837 7.293520 -6.210042 -0.074029 -2.325653 10.497760 -0.526105 3.726922 -12.716618 -0.724700 5.439500 -15.166400 0.514179 2.670638 -5.366540 2.153112 1.348453 3.179744 8.517769 -4.806113 25.696964 2.773800 -2.694100 10.396700 -88.695839 -1.560837 24.560249 7.781073 -17.007272 -1.940312 0.440110 1.048409 27.133926 -7.125000 0.000000 0.000000 87.388493 -6.570430 -6.355674 -7.491063 25.691526 -4.221388 -0.304877 -2.626373 16.834892 7.125000 0.000000 0.000000 
9.834223 17.824616 26.474859 -179.456153 1.158807 -165.991732 -24.735048 -12.078734 -7.108003 -0.007407 3.218603 10.348352 0.768167 -1.047199 -15.740069 9.025500 -16.824100 -56.178400 30.939398 7.331868 -6.225849 -0.076429 -2.344554 10.541546 -0.561039 3.966997 -13.063785 -0.884300 5.994400 -16.768200 0.519800 2.678183 -5.357361 2.126849 1.348723 3.256085 8.492572 -4.818396 25.679578 2.757100 -2.696900 10.383700 -88.751583 -1.692400 25.483226 8.083416 -17.396509 -2.001915 0.419890 1.053595 26.494354 -7.125000 0.000000 0.000000 87.391730 -6.419429 -6.245241 -7.469827 25.681293 -4.210604 -0.298273 -2.630399 16.923247 7.125000 0.000000 0.000000 
9.830045 17.821938 26.470252 -179.347520 1.191429 -165.986869 -24.562814 -11.675068 -7.054459 -0.006061 3.096172 10.029453 0.750078 -1.768959 -15.348298 8.346500 -16.368300 -53.801300 31.051762 7.406644 -6.226013 -0.069092 -2.358571 10.566406 -0.640273 4.225967 -13.795321 -0.939800 6.174700 -17.292100 0.523891 2.712297 -5.356576 2.066980 1.360565 3.306335 8.426515 -4.706737 25.840217 2.704400 -2.619600 10.515300 -88.813539 -1.844022 26.109892 8.290912 -17.658980 -2.046212 0.405040 1.058877 26.276179 -7.125000 0.000000 0.000000 87.423274 -6.315998 -6.224309 -7.428603 25.624131 -4.166359 -0.279087 -2.623266 17.123069 7.125000 0.000000 0.000000 
9.826189 17.819796 26.467896 -179.318495 1.205662 -166.003424 -24.486052 -11.113627 -6.704778 -0.044437 2.749489 9.121305 0.697141 -2.310428 -14.661972 7.807200 -15.975600 -51.865300 31.039690 7.459698 -6.207914 -0.068193 -2.356400 10.555459 -0.765561 4.895010 -14.891217 -0.840800 5.849100 -16.347100 0.538717 2.688841 -5.363840 2.048463 1.332224 3.368525 8.151508 -4.280337 26.373715 2.522600 -2.350900 10.954500 -88.909119 -2.085695 26.395034 8.360549 -17.746008 -2.071031 0.412069 1.064914 26.304294 -7.125000 0.000000 0.000000 87.413936 -6.198965 -6.168654 -7.404372 25.564712 -4.112051 -0.268943 -2.595496 17.313803 7.125000 0.000000 0.000000 
9.821904 17.818189 26.463183 -179.298834 1.186012 -166.040884 -24.478788 -10.861066 -6.419850 -0.072353 2.544557 8.590423 0.670953 -2.378527 -14.366348 7.728700 -15.916000 -51.579400 31.040229 7.484169 -6.129033 -0.066814 -2.350524 10.547379 -0.790024 4.997615 -15.089823 -0.637600 5.108800 -14.219000 0.532044 2.734661 -5.349113 2.026146 1.351794 3.417991 8.339611 -4.346535 26.359678 2.616400 -2.377800 10.953200 -88.903036 -2.360856 26.873212 8.399930 -17.797901 -2.089571 0.418052 1.072797 26.100692 -7.125000 0.000000 0.000000 87.490483 -6.156316 -5.973955 -7.394422 25.603111 -4.116345 -0.250959 -2.621306 17.062963 7.125000 0.000000 0.000000 
